<?xml version="1.0" standalone="no"?><!DOCTYPE svg PUBLIC "-//W3C//DTD SVG 1.1//EN" "http://www.w3.org/Graphics/SVG/1.1/DTD/svg11.dtd"><svg t="1588928343263" class="icon" viewBox="0 0 1024 1024" version="1.1" xmlns="http://www.w3.org/2000/svg" p-id="12018" xmlns:xlink="http://www.w3.org/1999/xlink" width="200" height="200"><defs><style type="text/css"></style></defs><path d="M430.08 580.01408h162.96618667v178.69482667H430.08z" fill="#D9A78C" p-id="12019"></path><path d="M849.5104 940.57130667c-0.98304-4.69674667-2.07530667-9.61194667-3.2768-14.63637333-1.41994667-6.33514667-2.83989333-12.77952-4.36906667-19.44234667-1.52917333-6.88128-3.16757333-13.87178667-4.80597333-20.97152-10.15808 7.97354667-22.17301333 12.12416-34.4064 12.67029333v0.10922667c-16.384 0.76458667-32.98645333-5.13365333-45.43829333-17.58549333-23.59296-23.59296-23.59296-61.82229333 0-85.30602667 12.45184-12.56106667 29.16352-18.35008 45.43829333-17.58549333 1.41994667 0.10922667 2.73066667 0.21845333 4.04138667 0.32768 0.32768 0 0.54613333 0.10922667 0.87381333 0.10922666 0.32768 0 0.54613333 0.10922667 0.87381333 0.10922667 0.32768 0 0.54613333 0.10922667 0.87381334 0.10922667-1.74762667-5.57056-3.38602667-10.81344-5.02442667-15.61941334-0.54613333-1.74762667-1.20149333-3.38602667-1.74762667-5.02442666-4.36906667-12.45184-8.51968-21.2992-11.90570666-24.90368-2.29376-2.40298667-6.00746667-4.80597333-10.70421334-7.20896-2.94912-1.52917333-6.33514667-2.94912-9.93962666-4.36906667-48.93354667-19.11466667-157.17717333-34.95253333-157.17717334-34.95253333l-19.77002666 1.6384-81.48309334 6.77205333v301.24714667h294.69354667c1.52917333 0 3.05834667-0.10922667 4.58752-0.43690667 1.85685333-0.32768 3.60448-0.98304 5.24288-1.74762667l1.96608-0.98304c0.32768-0.21845333 0.65536-0.43690667 0.87381333-0.65536 0.65536-0.43690667 1.20149333-0.87381333 1.74762667-1.31072 1.41994667-1.20149333 2.62144-2.51221333 3.71370667-3.93216 0.65536-0.87381333 1.20149333-1.74762667 1.74762666-2.62144 0.21845333-0.32768 0.32768-0.76458667 0.54613334-1.09226666 0.32768-0.65536 0.54613333-1.31072 0.87381333-1.96608 0.10922667-0.32768 0.21845333-0.76458667 0.32768-1.09226667 0.10922667-0.32768 0.21845333-0.65536 0.32768-1.09226667 0.32768-1.09226667 0.43690667-2.07530667 0.54613333-3.16757333 0.10922667-0.76458667 0.10922667-1.6384 0.10922667-2.40298667V948.3264c6.99050667-1.85685333 13.98101333-4.47829333 20.64384-7.75509333 0 0.10922667 0 0 0 0z" fill="#2D404E" p-id="12020"></path><path d="M715.59850667 308.80426667v-1.09226667c-6.44437333-196.38954667-127.03061333-238.98794667-204.03541334-238.98794666v542.74730666c20.53461333 0 52.4288-10.37653333 81.48309334-23.26528 30.36501333-13.54410667 57.67168-29.81888 65.86368-40.19541333 11.68725333-14.85482667 33.42336-55.92405333 46.42133333-118.29248 6.33514667-30.25578667 10.48576-65.536 10.48576-105.18528 0-5.46133333-0.10922667-10.59498667-0.21845333-15.72864z" fill="#EAC0A7" p-id="12021"></path><path d="M721.16906667 308.25813334c-0.54613333-0.10922667-1.20149333-0.21845333-1.85685334-0.32768-1.31072-0.21845333-2.51221333-0.21845333-3.82293333-0.21845334H714.06933333c-9.17504 0.32768-18.0224 5.02442667-25.23136 12.67029334-9.39349333 10.04885333-16.16554667 25.12213333-18.0224 42.81685333-0.65536 5.78901333-0.65536 11.4688-0.10922666 17.03936 2.29376 25.55904 16.05632 46.09365333 34.51562666 49.47968 0.43690667 0.10922667 0.98304 0.21845333 1.41994667 0.21845333 23.26528 3.16757333 45.00138667-21.51765333 48.49664-55.15946666 3.49525333-32.87722667-11.68725333-62.04074667-33.96949333-66.51904z" fill="#EAC0A7" p-id="12022"></path><path d="M307.74613333 302.57834667c-0.10922667 1.6384-0.10922667 3.38602667-0.21845333 5.02442667-0.21845333 5.46133333-0.32768 11.03189333-0.32768 16.82090666 0 39.75850667 4.25984 74.92949333 10.48576 105.18528 12.99797333 62.36842667 34.84330667 103.43765333 46.42133333 118.29248 8.08277333 10.37653333 35.38944 26.76053333 65.86368 40.19541334 29.05429333 12.88874667 60.94848 23.26528 81.48309334 23.26528V68.61482667c-76.24021333 0-195.29728 41.94304-203.70773334 233.96352z" fill="#F2D7BC" p-id="12023"></path><path d="M352.31061333 363.19914667c-0.21845333-2.51221333-0.65536-5.02442667-1.09226666-7.42741333-3.38602667-17.58549333-11.68725333-32.00341333-22.50069334-40.41386667-6.44437333-5.02442667-13.65333333-7.75509333-21.18997333-7.75509333-1.31072 0-2.51221333 0.10922667-3.82293333 0.32768-23.26528 3.16757333-39.3216 33.09568-35.82634667 66.73749333 3.49525333 33.64181333 25.23136 58.43626667 48.49664 55.15946667 0.43690667-0.10922667 0.98304-0.10922667 1.41994667-0.21845334 22.50069333-4.15061333 37.90165333-33.53258667 34.51562666-66.40981333z" fill="#F2D7BC" p-id="12024"></path><path d="M430.08 688.14848l-19.77002667-1.6384S255.31733333 709.12 232.48896 732.93141334c-19.98848 20.75306667-61.38538667 219.5456-70.99733333 263.12704h350.07146666V694.92053334l-81.48309333-6.77205334z" fill="#2D404E" p-id="12025"></path><path d="M430.08 662.15253334l-1.31072-0.54613334-20.42538667 20.75306667 1.85685334 4.15061333 19.77002666 43.79989334 12.77952 28.39893333 6.77205334 14.96405333 11.79648-14.96405333 50.13504-63.78837333-81.37386667-32.768zM594.24768 661.6064l-1.20149333 0.43690667-81.48309334 32.768 50.13504 63.78837333 11.79648 14.96405334 6.77205334-14.96405334 12.77952-28.39893333 19.77002666-43.79989333 1.85685334-4.15061334-20.42538667-20.64384z" fill="#FFFFFF" p-id="12026"></path><path d="M510.14314667 12.69077334c-278.528 0-208.84138667 295.67658667-208.84138667 295.67658666s2.83989333-0.76458667 6.44437333-0.76458666c2.51221333-0.10922667 14.19946667 0.76458667 20.97152 12.77952 6.11669333 10.92266667 10.81344 30.36501333 10.81344 64.77141333h6.99050667s1.96608-9.50272 4.58752-24.35754667c4.25984-24.35754667 10.48576-63.24224 12.99797333-99.50549333 52.53802667 0 101.79925333-3.60448 147.456-16.27477333 39.43082667-10.92266667 76.24021333-28.61738667 109.99125334-56.57941334 41.39690667 0 46.96746667 51.55498667 46.96746666 90.98581334l-18.13162666 6.99050666s17.58549333 34.29717333 18.78698666 98.74090667h12.56106667s-0.65536-37.35552 7.09973333-59.74698667c5.02442667-18.56853333 31.23882667-18.13162667 33.09568-16.93013333 0 0 0.32768-1.6384 0.87381334-4.69674667 7.09973333-38.33856 44.12757333-291.08906667-212.66432-291.08906666z" fill="#2F343A" p-id="12027"></path><path d="M444.8256 504.75690667c0 15.07328 29.92810667 27.19744 66.73749333 27.19744 36.91861333 0 66.73749333-12.23338667 66.73749334-27.19744H444.8256z" fill="#FFFFFF" p-id="12028"></path><path d="M909.91274667 808.29781334c-2.51221333-9.50272-6.33514667-18.78698667-11.4688-27.63434667-4.80597333-8.30122667-10.81344-16.16554667-18.0224-23.37450667-7.20896-7.20896-15.29173333-13.32565333-23.70218667-18.24085333-0.43690667-0.21845333-0.87381333-0.43690667-1.20149333-0.76458667 0 0-0.10922667 0-0.10922667-0.10922666-0.65536-0.32768-1.31072-0.65536-1.85685333-1.09226667-0.10922667-0.10922667-0.32768-0.21845333-0.54613334-0.21845333l-1.31072-0.65536c-0.10922667-0.10922667-0.32768-0.21845333-0.43690666-0.21845334-0.54613333-0.21845333-0.98304-0.54613333-1.52917334-0.76458666-0.54613333-0.32768-1.09226667-0.54613333-1.6384-0.76458667-6.22592-2.83989333-12.56106667-5.13365333-19.00544-6.88128-8.62890667-2.29376-17.47626667-3.49525333-26.2144-3.71370667-7.53664-0.21845333-15.18250667 0.43690667-22.71914666 1.74762667-3.38602667 0.54613333-6.66282667 1.31072-9.93962667 2.18453333-9.39349333 2.51221333-18.56853333 6.33514667-27.19744 11.35957334-8.41045333 4.9152-16.27477333 10.92266667-23.48373333 18.13162666-7.20896 7.20896-13.21642667 15.07328-18.13162667 23.48373334-5.02442667 8.62890667-8.84736 17.91317333-11.35957333 27.30666666-5.24288 19.22389333-5.24288 39.64928-0.10922667 58.87317334 2.51221333 9.61194667 6.33514667 18.89621333 11.35957333 27.63434666 4.9152 8.51968 10.92266667 16.49322667 18.24085334 23.81141334 7.09973333 7.09973333 14.96405333 13.1072 23.26528 17.91317333 8.73813333 5.13365333 17.91317333 8.95658667 27.41589333 11.4688 10.70421333 2.94912 21.62688 4.15061333 32.65877333 3.93216 8.84736-0.21845333 17.69472-1.41994667 26.2144-3.71370667 7.09973333-1.85685333 13.98101333-4.36906667 20.64384-7.64586666 2.51221333-1.20149333 4.9152-2.51221333 7.31818667-3.93216 6.22592-3.60448 12.23338667-7.86432 17.91317333-12.88874667 0.87381333-0.76458667 1.85685333-1.6384 2.73066667-2.51221333 0.10922667-0.10922667 0.21845333-0.21845333 0.32768-0.21845334 0.43690667-0.32768 0.76458667-0.76458667 1.20149333-1.09226666l0.32768-0.32768 1.09226667-1.09226667c2.73066667-2.83989333 5.35210667-5.67978667 7.86432-8.62890667 0.87381333-1.09226667 1.74762667-2.18453333 2.62144-3.38602666 0.87381333-1.09226667 1.6384-2.29376 2.51221333-3.49525334l2.62144-3.93216c0.87381333-1.31072 1.6384-2.73066667 2.40298667-4.04138666 5.13365333-8.84736 8.95658667-18.24085333 11.4688-27.8528 4.9152-19.00544 4.9152-39.3216-0.21845333-58.65472z m-152.80810667 72.41728c-23.59296-23.59296-23.59296-61.82229333 0-85.30602667 12.45184-12.56106667 29.16352-18.35008 45.43829333-17.58549333 1.41994667 0.10922667 2.73066667 0.21845333 4.04138667 0.32768 0.32768 0 0.54613333 0.10922667 0.87381333 0.10922666 0.32768 0 0.54613333 0.10922667 0.87381334 0.10922667 0.32768 0 0.54613333 0.10922667 0.87381333 0.10922667 0.21845333 0 0.32768 0 0.54613333 0.10922666 0.43690667 0.10922667 0.98304 0.21845333 1.41994667 0.21845334 0.43690667 0.10922667 0.98304 0.21845333 1.41994667 0.32768 0.43690667 0.10922667 0.98304 0.21845333 1.41994666 0.32768 0.65536 0.10922667 1.31072 0.32768 1.96608 0.54613333 9.61194667 2.73066667 18.78698667 7.86432 26.32362667 15.51018667 20.20693333 20.20693333 23.04682667 51.00885333 8.73813333 74.27413333-0.65536 1.09226667-1.41994667 2.18453333-2.18453333 3.2768s-1.52917333 2.18453333-2.40298667 3.16757333c-1.31072 1.52917333-2.62144 3.05834667-4.04138666 4.47829334l-1.20149334 1.20149333c-0.65536 0.65536-1.31072 1.20149333-1.96608 1.85685333-0.32768 0.32768-0.76458667 0.65536-1.09226666 0.98304-0.32768 0.32768-0.76458667 0.65536-1.09226667 0.87381334-10.15808 7.97354667-22.17301333 12.23338667-34.4064 12.77952-16.384 0.65536-33.09568-5.24288-45.54752-17.69472z" fill="#DDDBD6" p-id="12029"></path><path d="M751.42485333 748.11392L724.44586667 721.13493334c-8.73813333-8.73813333-23.15605333-8.73813333-32.00341334 0l-9.61194666 9.61194666c-8.73813333 8.73813333-8.73813333 23.15605333 0 32.00341334l26.97898666 26.97898666c8.73813333 8.73813333 23.15605333 8.73813333 32.00341334 0l9.61194666-9.61194666c8.84736-8.84736 8.84736-23.26528 0-32.00341334z m0.32768 147.34677334l-9.61194666-9.61194667c-8.73813333-8.73813333-23.15605333-8.73813333-32.00341334 0l-26.97898666 26.97898667c-8.73813333 8.73813333-8.73813333 23.15605333 0 32.00341333l9.61194666 9.61194667c8.84736 8.84736 23.15605333 8.73813333 32.00341334 0l26.97898666-26.97898667c8.73813333-8.84736 8.73813333-23.26528 0-32.00341333zM828.75733333 700.928c0-0.43690667 0-0.76458667-0.10922666-1.09226666-0.43690667-4.15061333-1.96608-7.97354667-4.36906667-11.25034667-0.65536-0.87381333-1.31072-1.6384-2.18453333-2.51221333-0.54613333-0.54613333-0.98304-0.98304-1.52917334-1.41994667-0.21845333-0.21845333-0.43690667-0.32768-0.65536-0.54613333-3.49525333-2.73066667-7.86432-4.36906667-12.56106666-4.58752h-14.85482667c-12.45184 0-22.60992 10.15808-22.60992 22.60992v38.12010666c0 12.45184 10.26730667 22.60992 22.60992 22.60992h13.65333333c12.45184 0 22.60992-10.26730667 22.60992-22.60992v-38.22933333c0.10922667-0.43690667 0.10922667-0.76458667 0-1.09226667z m-22.50069333 211.79050667h-13.65333333c-12.45184 0-22.60992 10.26730667-22.60992 22.60992v38.22933333c0 12.45184 10.26730667 22.60992 22.60992 22.60992h13.65333333c1.52917333 0 3.05834667-0.10922667 4.58752-0.43690666 1.85685333-0.32768 3.60448-0.98304 5.24288-1.74762667l1.96608-0.98304c0.32768-0.21845333 0.65536-0.43690667 0.87381333-0.65536 0.65536-0.43690667 1.20149333-0.87381333 1.74762667-1.31072 1.41994667-1.20149333 2.62144-2.51221333 3.71370667-3.93216 0.65536-0.87381333 1.20149333-1.74762667 1.74762666-2.62144 0.21845333-0.32768 0.32768-0.76458667 0.54613334-1.09226667 0.32768-0.65536 0.54613333-1.31072 0.87381333-1.96608 0.10922667-0.32768 0.21845333-0.76458667 0.32768-1.09226666 0.10922667-0.32768 0.21845333-0.65536 0.32768-1.09226667 0.32768-1.09226667 0.43690667-2.07530667 0.54613333-3.16757333 0.10922667-0.76458667 0.10922667-1.6384 0.10922667-2.40298667v-38.22933333c-0.10922667-12.56106667-10.26730667-22.71914667-22.60992-22.71914667z m-103.98378667-104.42069333h-38.22933333c-12.45184 0-22.60992 10.15808-22.60992 22.60992V844.56106667c0 12.45184 10.15808 22.60992 22.60992 22.60992h38.22933333c12.45184-0.10922667 22.60992-10.26730667 22.60992-22.60992v-13.65333333c-0.10922667-12.34261333-10.26730667-22.60992-22.60992-22.60992z" fill="#DDDBD6" p-id="12030"></path><path d="M916.46634667 913.04618667l-17.91317334-17.91317333-9.06581333-9.06581334c-8.73813333-8.73813333-23.15605333-8.84736-32.00341333 0l-9.61194667 9.61194667c-3.05834667 3.05834667-5.02442667 6.77205333-6.00746667 10.81344-1.52917333 6.66282667-0.10922667 13.87178667 4.36906667 19.44234667 0.54613333 0.65536 0.98304 1.20149333 1.6384 1.74762666l8.95658667 8.95658667v0.10922667l17.91317333 17.91317333c8.73813333 8.73813333 23.15605333 8.73813333 32.00341333 0l9.61194667-9.61194667c8.84736-8.84736 8.84736-23.15605333 0.10922667-32.00341333z m0.21845333-182.62698667l-9.61194667-9.61194666c-8.73813333-8.73813333-23.15605333-8.73813333-32.00341333 0l-26.97898667 26.97898666c-8.73813333 8.73813333-8.73813333 23.15605333 0 32.00341334l9.61194667 9.61194666c8.84736 8.84736 23.15605333 8.84736 32.00341333 0l8.62890667-8.62890666v-0.10922667l18.24085333-18.24085333c8.95658667-8.73813333 8.95658667-23.15605333 0.10922667-32.00341334z m41.50613333 100.48853334c0-12.45184-10.15808-22.60992-22.60992-22.60992h-38.22933333c-12.45184 0-22.60992 10.15808-22.60992 22.60992V844.56106667c0 12.45184 10.26730667 22.60992 22.60992 22.60992h38.12010667c12.45184-0.10922667 22.60992-10.26730667 22.60992-22.60992l0.10922666-13.65333333z" fill="#CCC9C4" p-id="12031"></path><path d="M909.91274667 808.29781334c-2.62144-9.61194667-6.44437333-18.89621333-11.4688-27.63434667-4.80597333-8.30122667-10.81344-16.16554667-18.0224-23.37450667-7.31818667-7.20896-15.29173333-13.32565333-23.70218667-18.13162666l-1.31072-0.65536s-0.10922667 0-0.10922667-0.10922667c-0.65536-0.32768-1.31072-0.65536-1.85685333-1.09226667-0.10922667-0.10922667-0.32768-0.21845333-0.54613333-0.21845333l-1.31072-0.65536c-0.10922667-0.10922667-0.32768-0.21845333-0.43690667-0.21845333-0.54613333-0.21845333-0.98304-0.54613333-1.52917333-0.76458667-0.54613333-0.32768-1.09226667-0.54613333-1.6384-0.76458667-6.22592-2.83989333-12.56106667-5.13365333-19.00544-6.88128v-25.88672-1.09226666c0-0.43690667 0-0.76458667-0.10922667-1.09226667-0.43690667-4.15061333-1.96608-7.97354667-4.36906667-11.25034667-0.65536-0.87381333-1.31072-1.6384-2.18453333-2.51221333-0.54613333-0.54613333-0.98304-0.98304-1.52917333-1.41994667-0.21845333-0.21845333-0.43690667-0.32768-0.65536-0.54613333-3.49525333-2.62144-7.86432-4.36906667-12.56106667-4.58752H802.54293333v98.304c1.41994667 0.10922667 2.73066667 0.21845333 4.04138667 0.32768 0.32768 0 0.54613333 0.10922667 0.87381333 0.10922667 0.32768 0 0.54613333 0.10922667 0.87381334 0.10922666 0.32768 0 0.54613333 0.10922667 0.87381333 0.10922667 0.21845333 0 0.32768 0 0.54613333 0.10922667 0.43690667 0.10922667 0.98304 0.21845333 1.41994667 0.21845333 0.43690667 0.10922667 0.98304 0.21845333 1.41994667 0.32768 0.43690667 0.10922667 0.98304 0.21845333 1.41994666 0.32768 0.65536 0.10922667 1.31072 0.32768 1.96608 0.54613333 9.72117333 2.73066667 18.78698667 7.75509333 26.43285334 15.40096 20.20693333 20.20693333 23.04682667 51.11808 8.73813333 74.38336-0.65536 1.09226667-1.41994667 2.18453333-2.18453333 3.2768s-1.52917333 2.18453333-2.40298667 3.16757334c-1.31072 1.52917333-2.62144 3.05834667-4.04138667 4.47829333l-1.20149333 1.20149333c-0.65536 0.65536-1.31072 1.20149333-1.96608 1.85685334-0.32768 0.32768-0.76458667 0.65536-1.09226667 0.98304-0.32768 0.32768-0.76458667 0.65536-1.09226666 0.87381333-10.15808 7.97354667-22.17301333 12.12416-34.4064 12.67029333v97.97632h3.60448c1.52917333 0 3.05834667-0.10922667 4.58752-0.43690666 1.85685333-0.32768 3.60448-0.98304 5.24288-1.74762667l1.96608-0.98304c0.32768-0.21845333 0.65536-0.43690667 0.87381333-0.65536 0.65536-0.43690667 1.20149333-0.87381333 1.74762667-1.31072 1.41994667-1.20149333 2.62144-2.51221333 3.71370666-3.93216 0.65536-0.87381333 1.20149333-1.74762667 1.74762667-2.62144 0.21845333-0.32768 0.32768-0.76458667 0.54613333-1.09226667 0.32768-0.65536 0.54613333-1.31072 0.87381334-1.96608 0.10922667-0.32768 0.21845333-0.76458667 0.32768-1.09226666 0.10922667-0.32768 0.21845333-0.65536 0.32768-1.09226667 0.21845333-1.09226667 0.43690667-2.07530667 0.54613333-3.16757333 0.10922667-0.76458667 0.10922667-1.6384 0.10922667-2.40298667v-25.44981333c7.09973333-1.85685333 13.98101333-4.36906667 20.64384-7.53664 2.51221333-1.20149333 4.9152-2.51221333 7.31818666-3.82293334 6.33514667-3.60448 12.34261333-7.86432 17.91317334-12.77952 0.87381333-0.76458667 1.85685333-1.6384 2.73066666-2.51221333 0.10922667-0.10922667 0.21845333-0.21845333 0.32768-0.21845333 0.43690667-0.32768 0.76458667-0.76458667 1.20149334-1.09226667l0.32768-0.32768 1.20149333-1.20149333c2.73066667-2.83989333 5.35210667-5.67978667 7.86432-8.62890667 0.87381333-1.09226667 1.74762667-2.18453333 2.62144-3.38602667 0.87381333-1.09226667 1.6384-2.29376 2.51221333-3.49525333 0.87381333-1.31072 1.85685333-2.62144 2.62144-3.93216 0.87381333-1.31072 1.6384-2.73066667 2.51221334-4.04138667 5.13365333-8.84736 8.95658667-18.24085333 11.57802666-27.8528 4.80597333-19.44234667 4.80597333-39.75850667-0.43690666-59.09162666z" fill="#CCC9C4" p-id="12032"></path></svg>