<?xml version="1.0" standalone="no"?><!DOCTYPE svg PUBLIC "-//W3C//DTD SVG 1.1//EN" "http://www.w3.org/Graphics/SVG/1.1/DTD/svg11.dtd"><svg t="1589126323339" class="icon" viewBox="0 0 1026 1024" version="1.1" xmlns="http://www.w3.org/2000/svg" p-id="13674" xmlns:xlink="http://www.w3.org/1999/xlink" width="200.390625" height="200"><defs><style type="text/css"></style></defs><path d="M276.01 536.99c-12.36 0-22.38-10.02-22.38-22.38s10.02-22.38 22.38-22.38h482.87c12.36 0 22.38 10.02 22.38 22.38s-10.02 22.38-22.38 22.38H276.01z m0 0" p-id="13675"></path><path d="M961.77 0H62.23C27.86 0 0 27.86 0 62.23v899.54C0 996.14 27.86 1024 62.23 1024h899.54c34.37 0 62.23-27.86 62.23-62.23V62.23C1024 27.86 996.14 0 961.77 0z m14.46 976.23H47.77V47.77h928.46v928.46z" p-id="13676"></path></svg>